{
  "accessors": [
    {
      "bufferView": 2,
      "componentType": 5126,
      "count": 899,
      "max": [
        5.4104890823364258,
        3.6980559825897217,
        12.646402359008789
      ],
      "min": [
        -5.4104890823364258,
        -3.7687981128692627,
        12.338930130004883
      ],
      "type": "VEC3"
    },
    {
      "bufferView": 2,
      "byteOffset": 10788,
      "componentType": 5126,
      "count": 899,
      "max": [
        1,
        1,
        1
      ],
      "min": [
        -1,
        -1,
        -1
      ],
      "type": "VEC3"
    },
    {
      "bufferView": 3,
      "componentType": 5126,
      "count": 899,
      "max": [
        0.93949770927429199,
        1,
        0.5178942084312439,
        1
      ],
      "min": [
        -1,
        -1,
        -0.47584640979766846,
        -1
      ],
      "type": "VEC4"
    },
    {
      "bufferView": 1,
      "componentType": 5126,
      "count": 899,
      "max": [
        0.875,
        1
      ],
      "min": [
        0,
        0
      ],
      "type": "VEC2"
    },
    {
      "bufferView": 0,
      "componentType": 5125,
      "count": 4824,
      "max": [
        898
      ],
      "min": [
        0
      ],
      "type": "SCALAR"
    },
    {
      "bufferView": 2,
      "byteOffset": 21576,
      "componentType": 5126,
      "count": 2208,
      "max": [
        5.4774041175842285,
        -0.18586699664592743,
        12.124917030334473
      ],
      "min": [
        -5.4774041175842285,
        -1.0614370107650757,
        10.719944000244141
      ],
      "type": "VEC3"
    },
    {
      "bufferView": 2,
      "byteOffset": 48072,
      "componentType": 5126,
      "count": 2208,
      "max": [
        0.9999883770942688,
        0.999980628490448,
        0.9962189793586731
      ],
      "min": [
        -0.9999883770942688,
        -0.999980628490448,
        -0.99620366096496582
      ],
      "type": "VEC3"
    },
    {
      "bufferView": 3,
      "byteOffset": 14384,
      "componentType": 5126,
      "count": 2208,
      "max": [
        0.99998611211776733,
        0.99998641014099121,
        0.99981242418289185,
        1
      ],
      "min": [
        -0.99998611211776733,
        -0.99998635053634644,
        -0.99999433755874634,
        -1
      ],
      "type": "VEC4"
    },
    {
      "bufferView": 0,
      "byteOffset": 19296,
      "componentType": 5125,
      "count": 9216,
      "max": [
        2207
      ],
      "min": [
        0
      ],
      "type": "SCALAR"
    },
    {
      "bufferView": 2,
      "byteOffset": 74568,
      "componentType": 5126,
      "count": 2231,
      "max": [
        4.6175169944763184,
        2.6613450050354004,
        12.346332550048828
      ],
      "min": [
        -4.5916519165039062,
        -2.8097450733184814,
        10.639324188232422
      ],
      "type": "VEC3"
    },
    {
      "bufferView": 2,
      "byteOffset": 101340,
      "componentType": 5126,
      "count": 2231,
      "max": [
        0.99999988079071045,
        1,
        1
      ],
      "min": [
        -1,
        -1,
        -1
      ],
      "type": "VEC3"
    },
    {
      "bufferView": 3,
      "byteOffset": 49712,
      "componentType": 5126,
      "count": 2231,
      "max": [
        1,
        1,
        0.99945008754730225,
        1
      ],
      "min": [
        -0.99509018659591675,
        -1,
        -0.99997603893280029,
        -1
      ],
      "type": "VEC4"
    },
    {
      "bufferView": 0,
      "byteOffset": 56160,
      "componentType": 5125,
      "count": 12084,
      "max": [
        2230
      ],
      "min": [
        0
      ],
      "type": "SCALAR"
    },
    {
      "bufferView": 2,
      "byteOffset": 128112,
      "componentType": 5126,
      "count": 3762,
      "max": [
        5.3197407722473145,
        3.3680810928344727,
        12.332633972167969
      ],
      "min": [
        -5.3197407722473145,
        -3.5093469619750977,
        0.54887902736663818
      ],
      "type": "VEC3"
    },
    {
      "bufferView": 2,
      "byteOffset": 173256,
      "componentType": 5126,
      "count": 3762,
      "max": [
        0.9999995231628418,
        1,
        1
      ],
      "min": [
        -0.9999995231628418,
        -1,
        -1
      ],
      "type": "VEC3"
    },
    {
      "bufferView": 3,
      "byteOffset": 85408,
      "componentType": 5126,
      "count": 3762,
      "max": [
        1,
        1,
        1,
        1
      ],
      "min": [
        -1,
        -1,
        -1,
        -1
      ],
      "type": "VEC4"
    },
    {
      "bufferView": 0,
      "byteOffset": 104496,
      "componentType": 5125,
      "count": 21144,
      "max": [
        3761
      ],
      "min": [
        0
      ],
      "type": "SCALAR"
    },
    {
      "bufferView": 2,
      "byteOffset": 218400,
      "componentType": 5126,
      "count": 740,
      "max": [
        5.4182610511779785,
        3.4663429260253906,
        0.61376899480819702
      ],
      "min": [
        -5.4182610511779785,
        -3.6142640113830566,
        0.00069299997994676232
      ],
      "type": "VEC3"
    },
    {
      "bufferView": 2,
      "byteOffset": 227280,
      "componentType": 5126,
      "count": 740,
      "max": [
        0.99902665615081787,
        0.99908453226089478,
        1
      ],
      "min": [
        -0.99902665615081787,
        -0.99902665615081787,
        -1
      ],
      "type": "VEC3"
    },
    {
      "bufferView": 3,
      "byteOffset": 145600,
      "componentType": 5126,
      "count": 740,
      "max": [
        1,
        0.9999968409538269,
        0.50799167156219482,
        1
      ],
      "min": [
        -1,
        -0.99999964237213135,
        -0.5077400803565979,
        -1
      ],
      "type": "VEC4"
    },
    {
      "bufferView": 0,
      "byteOffset": 189072,
      "componentType": 5125,
      "count": 3072,
      "max": [
        739
      ],
      "min": [
        0
      ],
      "type": "SCALAR"
    }
  ],
  "asset": {
    "extras": {
      "author": "TomoNaga (https://sketchfab.com/Tomoyuki.Nagamine)",
      "license": "CC-BY-4.0 (http://creativecommons.org/licenses/by/4.0/)",
      "source": "https://sketchfab.com/models/6b77ab6fa6934c98803647494b7d6dc1",
      "title": "School Tsukue"
    },
    "generator": "Sketchfab-3.20.7",
    "version": "2.0"
  },
  "bufferViews": [
    {
      "buffer": 0,
      "byteLength": 201360,
      "byteOffset": 0,
      "name": "floatBufferViews",
      "target": 34963
    },
    {
      "buffer": 0,
      "byteLength": 7192,
      "byteOffset": 201360,
      "byteStride": 8,
      "name": "floatBufferViews",
      "target": 34962
    },
    {
      "buffer": 0,
      "byteLength": 236160,
      "byteOffset": 208552,
      "byteStride": 12,
      "name": "floatBufferViews",
      "target": 34962
    },
    {
      "buffer": 0,
      "byteLength": 157440,
      "byteOffset": 444712,
      "byteStride": 16,
      "name": "floatBufferViews",
      "target": 34962
    }
  ],
  "buffers": [
    {
      "byteLength": 602152,
      "uri": "scene.bin"
    }
  ],
  "images": [
    {
      "uri": "textures/blinn2SG_baseColor.jpeg"
    }
  ],
  "materials": [
    {
      "doubleSided": true,
      "emissiveFactor": [
        0,
        0,
        0
      ],
      "name": "blinn1SG",
      "pbrMetallicRoughness": {
        "baseColorFactor": [
          0.58999999999999997,
          0.58999999999999997,
          0.58999999999999997,
          1
        ],
        "metallicFactor": 0,
        "roughnessFactor": 1
      }
    },
    {
      "doubleSided": true,
      "emissiveFactor": [
        0,
        0,
        0
      ],
      "name": "blinn2SG",
      "pbrMetallicRoughness": {
        "baseColorFactor": [
          1,
          1,
          1,
          1
        ],
        "baseColorTexture": {
          "index": 0,
          "texCoord": 0
        },
        "metallicFactor": 0,
        "roughnessFactor": 1
      }
    },
    {
      "doubleSided": true,
      "emissiveFactor": [
        0,
        0,
        0
      ],
      "name": "lambert2SG",
      "pbrMetallicRoughness": {
        "baseColorFactor": [
          0.029999999999999999,
          0.029999999999999999,
          0.029999999999999999,
          1
        ],
        "metallicFactor": 0,
        "roughnessFactor": 1
      }
    }
  ],
  "meshes": [
    {
      "primitives": [
        {
          "attributes": {
            "NORMAL": 1,
            "POSITION": 0,
            "TANGENT": 2,
            "TEXCOORD_0": 3
          },
          "indices": 4,
          "material": 1,
          "mode": 4
        }
      ]
    },
    {
      "primitives": [
        {
          "attributes": {
            "NORMAL": 6,
            "POSITION": 5,
            "TANGENT": 7
          },
          "indices": 8,
          "material": 0,
          "mode": 4
        }
      ]
    },
    {
      "primitives": [
        {
          "attributes": {
            "NORMAL": 10,
            "POSITION": 9,
            "TANGENT": 11
          },
          "indices": 12,
          "material": 0,
          "mode": 4
        }
      ]
    },
    {
      "primitives": [
        {
          "attributes": {
            "NORMAL": 14,
            "POSITION": 13,
            "TANGENT": 15
          },
          "indices": 16,
          "material": 0,
          "mode": 4
        }
      ]
    },
    {
      "primitives": [
        {
          "attributes": {
            "NORMAL": 18,
            "POSITION": 17,
            "TANGENT": 19
          },
          "indices": 20,
          "material": 2,
          "mode": 4
        }
      ]
    }
  ],
  "nodes": [
    {
      "children": [
        1
      ],
      "name": "RootNode (gltf orientation matrix)",
      "rotation": [
        -0.70710678118654746,
        -0,
        -0,
        0.70710678118654757
      ]
    },
    {
      "children": [
        2
      ],
      "name": "RootNode (model correction matrix)"
    },
    {
      "children": [
        3,
        4,
        5,
        6,
        7
      ],
      "name": "SchoolTsukue.obj.cleaner.materialmerger.gles"
    },
    {
      "mesh": 0,
      "name": ""
    },
    {
      "mesh": 1,
      "name": ""
    },
    {
      "mesh": 2,
      "name": ""
    },
    {
      "mesh": 3,
      "name": ""
    },
    {
      "mesh": 4,
      "name": ""
    }
  ],
  "samplers": [
    {
      "magFilter": 9729,
      "minFilter": 9987,
      "wrapS": 10497,
      "wrapT": 10497
    }
  ],
  "scene": 0,
  "scenes": [
    {
      "name": "OSG_Scene",
      "nodes": [
        0
      ]
    }
  ],
  "textures": [
    {
      "sampler": 0,
      "source": 0
    }
  ]
}

