{
  "accessors": [
    {
      "bufferView": 2,
      "componentType": 5126,
      "count": 2806,
      "max": [
        17.465204238891602,
        46.646469116210938,
        62.484001159667969
      ],
      "min": [
        -11.430001258850098,
        12.538158416748047,
        -62.484001159667969
      ],
      "type": "VEC3"
    },
    {
      "bufferView": 2,
      "byteOffset": 33672,
      "componentType": 5126,
      "count": 2806,
      "max": [
        0.99999934434890747,
        0.99978619813919067,
        1
      ],
      "min": [
        -1,
        -0.99999380111694336,
        -1
      ],
      "type": "VEC3"
    },
    {
      "bufferView": 3,
      "componentType": 5126,
      "count": 2806,
      "max": [
        0.99999380111694336,
        0.99566423892974854,
        1,
        1
      ],
      "min": [
        -0.90616846084594727,
        -1,
        -1,
        -1
      ],
      "type": "VEC4"
    },
    {
      "bufferView": 1,
      "componentType": 5126,
      "count": 2806,
      "max": [
        1,
        1
      ],
      "min": [
        0,
        -0.0010527546983212233
      ],
      "type": "VEC2"
    },
    {
      "bufferView": 0,
      "componentType": 5125,
      "count": 11370,
      "max": [
        2805
      ],
      "min": [
        0
      ],
      "type": "SCALAR"
    },
    {
      "bufferView": 2,
      "byteOffset": 67344,
      "componentType": 5126,
      "count": 16,
      "max": [
        13.501564025878906,
        18.137359619140625,
        -47.645503997802734
      ],
      "min": [
        11.693863868713379,
        17.299057006835938,
        -58.208332061767578
      ],
      "type": "VEC3"
    },
    {
      "bufferView": 2,
      "byteOffset": 67536,
      "componentType": 5126,
      "count": 16,
      "max": [
        0.42076024413108826,
        -0.90717190504074097,
        4.0032900869846344e-05
      ],
      "min": [
        0.42066574096679688,
        -0.9072156548500061,
        -3.6360488593345508e-05
      ],
      "type": "VEC3"
    },
    {
      "bufferView": 3,
      "byteOffset": 44896,
      "componentType": 5126,
      "count": 16,
      "max": [
        0.90300947427749634,
        0.41877546906471252,
        0.10299352556467056,
        1
      ],
      "min": [
        0.90234923362731934,
        0.41843342781066895,
        0.096116505563259125,
        1
      ],
      "type": "VEC4"
    },
    {
      "bufferView": 1,
      "byteOffset": 22448,
      "componentType": 5126,
      "count": 16,
      "max": [
        0.62066280841827393,
        0.069615684449672699
      ],
      "min": [
        0.60089534521102905,
        0.018073096871376038
      ],
      "type": "VEC2"
    },
    {
      "bufferView": 0,
      "byteOffset": 45480,
      "componentType": 5125,
      "count": 54,
      "max": [
        15
      ],
      "min": [
        0
      ],
      "type": "SCALAR"
    }
  ],
  "asset": {
    "extras": {
      "author": "Auspicious Art and Graphics (AAG) (https://sketchfab.com/auspicious)",
      "license": "CC-BY-4.0 (http://creativecommons.org/licenses/by/4.0/)",
      "source": "https://sketchfab.com/3d-models/ac-air-conditioner-7d6b5831b43546c0ac82b878a78f8434",
      "title": "AC - Air Conditioner"
    },
    "generator": "Sketchfab-6.33.0",
    "version": "2.0"
  },
  "bufferViews": [
    {
      "buffer": 0,
      "byteLength": 45696,
      "byteOffset": 0,
      "name": "floatBufferViews",
      "target": 34963
    },
    {
      "buffer": 0,
      "byteLength": 22576,
      "byteOffset": 45696,
      "byteStride": 8,
      "name": "floatBufferViews",
      "target": 34962
    },
    {
      "buffer": 0,
      "byteLength": 67728,
      "byteOffset": 68272,
      "byteStride": 12,
      "name": "floatBufferViews",
      "target": 34962
    },
    {
      "buffer": 0,
      "byteLength": 45152,
      "byteOffset": 136000,
      "byteStride": 16,
      "name": "floatBufferViews",
      "target": 34962
    }
  ],
  "buffers": [
    {
      "byteLength": 181152,
      "uri": "scene.bin"
    }
  ],
  "materials": [
    {
      "doubleSided": true,
      "emissiveFactor": [
        0,
        0,
        0
      ],
      "name": "phongE1",
      "pbrMetallicRoughness": {
        "baseColorFactor": [
          1,
          1,
          1,
          1
        ],
        "metallicFactor": 0,
        "roughnessFactor": 0.78852574730000002
      }
    },
    {
      "doubleSided": true,
      "emissiveFactor": [
        0,
        0,
        0
      ],
      "name": "phongE2",
      "pbrMetallicRoughness": {
        "baseColorFactor": [
          0.71428599999999998,
          0.71428599999999998,
          0.71428599999999998,
          1
        ],
        "metallicFactor": 0,
        "roughnessFactor": 0.93683242919999998
      }
    }
  ],
  "meshes": [
    {
      "name": "AC_phongE1_0",
      "primitives": [
        {
          "attributes": {
            "NORMAL": 1,
            "POSITION": 0,
            "TANGENT": 2,
            "TEXCOORD_0": 3
          },
          "indices": 4,
          "material": 0,
          "mode": 4
        }
      ]
    },
    {
      "name": "AC_phongE2_0",
      "primitives": [
        {
          "attributes": {
            "NORMAL": 6,
            "POSITION": 5,
            "TANGENT": 7,
            "TEXCOORD_0": 8
          },
          "indices": 9,
          "material": 1,
          "mode": 4
        }
      ]
    }
  ],
  "nodes": [
    {
      "children": [
        1
      ],
      "name": "RootNode (gltf orientation matrix)",
      "rotation": [
        -0.70710678118654746,
        -0,
        -0,
        0.70710678118654757
      ]
    },
    {
      "children": [
        2
      ],
      "name": "RootNode (model correction matrix)"
    },
    {
      "children": [
        3
      ],
      "matrix": [
        1,
        0,
        0,
        0,
        0,
        0,
        1,
        0,
        0,
        -1,
        0,
        0,
        0,
        0,
        0,
        1
      ],
      "name": "145353c486194717ade2242922922ed0.fbx"
    },
    {
      "children": [
        4
      ],
      "name": "RootNode"
    },
    {
      "children": [
        5,
        6
      ],
      "matrix": [
        1,
        0,
        0,
        0,
        0,
        1,
        0,
        0,
        0,
        0,
        1,
        0,
        -8.8817841970012523e-16,
        -3.5527136788005009e-15,
        6.4623485355705287e-27,
        1
      ],
      "name": "AC"
    },
    {
      "mesh": 0,
      "name": "AC_phongE1_0"
    },
    {
      "mesh": 1,
      "name": "AC_phongE2_0"
    }
  ],
  "scene": 0,
  "scenes": [
    {
      "name": "OSG_Scene",
      "nodes": [
        0
      ]
    }
  ]
}

